<svg width="149" height="66" viewBox="0 0 149 66" fill="none" xmlns="http://www.w3.org/2000/svg">
<path d="M18.7033 4.75574C20.0618 5.87378 22.6407 7.4297 26.6678 7.67556V54.8107H2.50347V20.9377C4.0848 20.1505 5.53711 19.1272 6.81051 17.903C9.14349 15.6561 11.6846 11.839 11.498 5.97428L18.6962 4.75574H18.7033ZM19.5181 2.06384L8.79354 3.88536C10.6097 15.9253 0 19.2759 0 19.2759V57.3214H29.1802V5.1362C28.6903 5.17748 28.2201 5.19542 27.7714 5.19542C22.018 5.19542 19.5253 2.06923 19.5253 2.06923L19.5181 2.06384Z" fill="#007A9B"/>
<path d="M47.2051 12.4151C47.6478 12.5934 48.0737 12.9858 48.4829 13.5924C48.9409 14.289 49.3515 15.0157 49.7122 15.7674C50.1213 16.6049 50.5586 17.4962 51.024 18.4414C51.4802 19.3677 52.0013 20.2607 52.5835 21.1135C53.1333 21.9249 53.7799 22.6661 54.5091 23.3209C55.204 23.9453 56.0515 24.375 56.9659 24.5663C57.2055 24.6751 57.4557 24.7587 57.7125 24.8158C57.9673 24.8696 58.0947 24.9953 58.0947 25.1963C58.0947 25.3291 57.996 25.496 57.795 25.6952C57.4067 25.8018 57.0039 25.8466 56.6016 25.828C56.3791 25.828 56.1584 25.8154 55.9376 25.7939C55.7169 25.7723 55.5267 25.749 55.3723 25.7275C53.4916 25.3961 51.9147 24.6327 50.6418 23.4375C49.3516 22.2175 48.3578 20.7185 47.7363 19.0551C47.3594 18.3469 47.0107 17.6165 46.6901 16.8639C46.3901 16.1503 46.0235 15.4666 45.5953 14.8217C45.2076 14.2389 44.7219 13.7276 44.1597 13.3106C43.573 12.8985 42.8681 12.6887 42.1515 12.713C41.7082 12.713 41.4337 12.8027 41.3386 12.9786C41.2434 13.1545 41.1878 13.517 41.1878 14.041V20.882C41.1629 21.3247 41.2371 21.7674 41.405 22.1777C41.5311 22.4466 41.7407 22.6675 42.0026 22.8076C42.2885 22.9507 42.598 23.0407 42.916 23.0732C43.2749 23.1187 43.6733 23.1851 44.1112 23.2724C44.1965 23.3019 44.2869 23.3135 44.3768 23.3065C44.5448 23.3051 44.7122 23.3275 44.8739 23.3729C44.9464 23.3907 45.0099 23.4342 45.0528 23.4952C45.0957 23.5563 45.115 23.6308 45.1072 23.7049C45.1072 24.0154 44.9959 24.202 44.7752 24.2684C44.4493 24.3467 44.1142 24.3805 43.7792 24.3689C42.9824 24.3689 42.1856 24.3301 41.3888 24.2523C40.5902 24.1751 39.806 24.1356 39.0307 24.1356C38.3452 24.1356 37.6632 24.1697 36.9884 24.2361C36.3137 24.3025 35.6335 24.3348 34.948 24.3348C34.7557 24.352 34.562 24.3238 34.3827 24.2523C34.2947 24.1967 34.2499 24.0154 34.2499 23.7049C34.25 23.6295 34.2767 23.5565 34.3253 23.4987C34.3738 23.441 34.4412 23.4022 34.5155 23.3891C34.7385 23.3239 34.9658 23.2741 35.1956 23.2401C35.472 23.1953 35.7663 23.145 36.0768 23.0894C36.3855 23.0348 36.6827 22.9287 36.9561 22.7753C37.2658 22.6121 37.5205 22.3614 37.6887 22.0544C37.8569 21.7474 37.931 21.3977 37.9019 21.0489V14.2079C37.9019 12.3272 37.9186 10.4566 37.9521 8.5962C37.9856 6.7358 38.0024 4.86582 38.0024 2.98628C38.0238 2.62358 37.9309 2.26332 37.7368 1.95618C37.567 1.71925 37.3292 1.53961 37.0548 1.44113C36.7714 1.34122 36.4755 1.28083 36.1755 1.26167C35.865 1.24013 35.5725 1.2168 35.2961 1.19527C35.0644 1.18263 34.8355 1.13794 34.616 1.06247C34.5333 1.03567 34.4621 0.981755 34.4139 0.909448C34.3657 0.837142 34.3433 0.750679 34.3504 0.664064C34.3504 0.353598 34.4652 0.170549 34.6985 0.114916C34.9338 0.0599354 35.1747 0.0322359 35.4164 0.0323647C35.6586 0.0323647 35.9081 0.0449267 36.1629 0.0664619C36.4178 0.0879971 36.6654 0.0987648 36.9095 0.0987648H39.7988C40.6363 0.0987648 41.4827 0.0820154 42.3381 0.0485162C43.1936 0.015017 44.04 -0.00113452 44.8775 6.18825e-05C45.6709 0.00710985 46.4611 0.101598 47.2338 0.281814C48.0785 0.471245 48.879 0.820929 49.5919 1.31192C50.3452 1.83425 50.9699 2.52093 51.4188 3.32007C51.9046 4.15755 52.148 5.23072 52.1492 6.53959C52.154 7.2234 52.0004 7.89904 51.7006 8.51365C51.4028 9.11992 51.0102 9.67484 50.5377 10.1575C50.0575 10.6481 49.5229 11.0823 48.9441 11.4514C48.3874 11.8124 47.8063 12.1344 47.2051 12.4151ZM48.7664 6.43909C48.784 5.63997 48.6368 4.8458 48.3339 4.10611C48.0662 3.46901 47.664 2.89725 47.1549 2.42995C46.6413 1.96683 46.0368 1.61599 45.38 1.39985C44.6517 1.16066 43.8889 1.04304 43.1224 1.0517C42.3471 1.0517 41.8381 1.18988 41.5952 1.46625C41.3523 1.74262 41.2327 2.1464 41.2363 2.67761V3.81538C41.2363 4.70192 41.2249 5.69792 41.2022 6.80339C41.1794 7.90887 41.1687 8.90487 41.1699 9.7914C41.1699 10.1234 41.1699 10.4069 41.1537 10.6385C41.1373 10.8348 41.1599 11.0324 41.2201 11.2199C41.2501 11.2993 41.2981 11.3706 41.3604 11.4282C41.4227 11.4858 41.4976 11.5282 41.579 11.5519C41.8659 11.6302 42.1631 11.6635 42.4602 11.6506C43.2947 11.655 44.1279 11.5829 44.9493 11.4353C45.6687 11.315 46.3544 11.0435 46.961 10.6385C47.5384 10.2358 47.9971 9.6854 48.289 9.04485C48.6073 8.37008 48.7664 7.50149 48.7664 6.43909Z" fill="white"/>
<path d="M77.4173 14.075C77.4296 14.304 77.3839 14.5324 77.2845 14.739C77.1674 14.7588 77.0494 14.7726 76.9309 14.7803C76.8147 14.7922 76.6979 14.7982 76.581 14.7982H68.3169C68.2034 14.8027 68.0913 14.8251 67.9849 14.8646C67.9185 14.8646 67.8736 14.9525 67.8521 15.1302C67.8288 15.3087 67.8174 15.4886 67.818 15.6686V15.9342C67.8365 16.806 67.9435 17.6736 68.1374 18.5238C68.3048 19.2924 68.6147 20.0228 69.0509 20.6773C69.4728 21.3 70.0433 21.8077 70.7109 22.1543C71.3964 22.5204 72.2482 22.7034 73.2664 22.7034C73.6397 22.7075 74.0125 22.6738 74.379 22.6029C74.6891 22.5404 74.9904 22.4403 75.2763 22.305C75.5668 22.1634 75.8443 21.9965 76.1054 21.8061C76.3818 21.6075 76.6863 21.3862 77.0189 21.1421C77.1035 21.11 77.1946 21.0989 77.2845 21.1098C77.4388 21.1098 77.516 21.1762 77.516 21.309C77.4979 21.4666 77.4357 21.6159 77.3365 21.7397C77.2085 21.9273 77.0695 22.1071 76.9202 22.2781C76.7686 22.4526 76.6081 22.6191 76.4392 22.777C76.2741 22.9313 76.1449 23.0426 76.057 23.109C75.4641 23.6279 74.7915 24.0478 74.065 24.3527C73.3325 24.6232 72.5556 24.7529 71.7751 24.7349C70.8281 24.7573 69.8875 24.5736 69.0185 24.1965C68.2388 23.8439 67.5474 23.3223 66.9942 22.6693C66.4328 21.9995 66.0062 21.2274 65.738 20.3956C65.4394 19.4912 65.2802 18.5465 65.266 17.5942C65.2451 16.5347 65.345 15.4762 65.5639 14.4393C65.7657 13.4274 66.1364 12.4567 66.6604 11.5679C67.1617 10.7242 67.8515 10.0081 68.6758 9.47543C69.5049 8.93346 70.5063 8.66248 71.6799 8.66248C73.0079 8.66248 74.1445 8.94482 75.0897 9.50953C76.0348 10.0742 76.7042 11.0206 77.0978 12.3486C77.1848 12.6323 77.2567 12.9205 77.3132 13.2118C77.3637 13.4974 77.3984 13.7856 77.4173 14.075ZM74.6608 12.4473C74.6603 12.0683 74.5751 11.6943 74.4113 11.3526C74.2521 11.0072 74.0335 10.6926 73.7653 10.423C73.5014 10.1591 73.1919 9.94506 72.8518 9.79128C72.5236 9.64025 72.1668 9.56131 71.8056 9.55978C71.3304 9.56257 70.8633 9.68213 70.4453 9.90793C70.0017 10.1409 69.6026 10.4501 69.2662 10.8214C68.9238 11.1974 68.6488 11.6297 68.4533 12.0991C68.2601 12.5446 68.1582 13.0242 68.1535 13.5097C68.1535 13.5994 68.2253 13.6586 68.3689 13.6892C68.533 13.7256 68.6999 13.7478 68.8678 13.7556C69.0501 13.7663 69.2329 13.7663 69.4152 13.7556C69.5946 13.7448 69.7023 13.7394 69.7472 13.7394C70.3657 13.7394 70.8807 13.7448 71.2923 13.7556C71.7039 13.7663 72.2076 13.749 72.8034 13.7035C73.069 13.682 73.313 13.6604 73.5338 13.6371C73.7328 13.6203 73.9286 13.5756 74.1152 13.5043C74.2828 13.4355 74.4229 13.313 74.5136 13.1562C74.6245 12.937 74.6752 12.6924 74.6608 12.4473Z" fill="white"/>
<path d="M91.3272 8.43103C91.3791 8.43625 91.4289 8.45401 91.4723 8.48277C91.5158 8.51154 91.5516 8.55044 91.5767 8.59613C91.6397 8.67198 91.6801 8.76401 91.6933 8.86173C91.6927 8.95132 91.6813 9.0405 91.6592 9.12733C91.638 9.21428 91.6271 9.30344 91.6269 9.39294V11.1875L91.6933 11.2216C91.7949 11.1747 91.8854 11.1068 91.9589 11.0224C92.6721 10.4078 93.4384 9.85771 94.2488 9.37858C95.0683 8.91303 95.9985 8.678 96.9407 8.69843C97.6997 8.67281 98.4545 8.82009 99.1481 9.12913C99.7104 9.39657 100.196 9.80223 100.559 10.3082C100.929 10.8463 101.179 11.4587 101.289 12.1028C101.426 12.842 101.492 13.5925 101.488 14.3442C101.488 14.7869 101.477 15.2182 101.456 15.6381C101.433 16.0599 101.422 16.4906 101.422 16.9338V21.7793C101.422 22.5306 101.643 22.9954 102.086 23.1737C102.607 23.3644 103.159 23.4545 103.714 23.4393C103.761 23.4354 103.809 23.4481 103.848 23.4752C103.887 23.5024 103.916 23.5423 103.929 23.5882C103.963 23.69 103.98 23.7967 103.979 23.9041C103.979 23.9949 103.962 24.085 103.929 24.1697C103.897 24.2576 103.802 24.3025 103.647 24.3025C103.342 24.3031 103.037 24.2863 102.734 24.2522C102.43 24.219 102.125 24.2023 101.82 24.202H99.3294C99.1499 24.202 98.9704 24.202 98.791 24.2199C98.6115 24.2379 98.4321 24.2468 98.2526 24.2684C98.0731 24.2899 97.8937 24.3079 97.7142 24.3186C97.5348 24.3294 97.3553 24.3348 97.1758 24.3348C96.9812 24.3299 96.7871 24.3137 96.5944 24.2863C96.3396 24.2528 96.2121 24.1332 96.2121 23.9274C96.2032 23.8344 96.2241 23.7409 96.2718 23.6605C96.3196 23.5802 96.3917 23.5171 96.4777 23.4806C96.6845 23.3939 96.9027 23.3377 97.1256 23.3137C97.3804 23.2796 97.6352 23.2365 97.8901 23.1809C98.1338 23.131 98.3516 22.9954 98.5038 22.7986C98.6945 22.538 98.7986 22.2242 98.8017 21.9013C98.8233 21.5244 98.8358 21.2032 98.8358 20.9376C98.8574 20.4519 98.8681 19.9733 98.8681 19.5019V15.2362C98.8689 14.671 98.8414 14.1062 98.7856 13.5438C98.7412 13.0318 98.6063 12.5318 98.3872 12.0669C98.1776 11.6354 97.8496 11.2726 97.4414 11.0206C97.0197 10.755 96.4562 10.6222 95.7473 10.6222C95.2791 10.6158 94.8131 10.6886 94.3691 10.8376C93.9278 10.9958 93.5005 11.1903 93.0913 11.419C92.8927 11.5303 92.6439 11.6739 92.3448 11.8497C92.0869 11.9857 91.8737 12.1932 91.731 12.4473C91.6733 12.6479 91.6343 12.8534 91.6144 13.0611C91.5803 13.3393 91.5533 13.6551 91.5318 14.0086C91.5103 14.3622 91.4977 14.7265 91.4977 15.1034V21.5783C91.49 21.9697 91.6048 22.3537 91.8261 22.6766C91.9205 22.8239 92.0443 22.9502 92.1897 23.0475C92.3352 23.1447 92.4992 23.2109 92.6714 23.2419C92.9853 23.2859 93.3019 23.3081 93.6189 23.3083C93.8029 23.3081 93.9854 23.3415 94.1573 23.407C94.2901 23.4524 94.3565 23.5721 94.3565 23.7659C94.3622 23.8378 94.3534 23.9101 94.3306 23.9786C94.3078 24.047 94.2714 24.1102 94.2237 24.1643C94.1063 24.2099 93.9865 24.2488 93.8648 24.2809C93.7385 24.2955 93.6114 24.3009 93.4843 24.2971C93.0046 24.2974 92.5252 24.2698 92.0487 24.2145C91.5859 24.1587 91.1203 24.1306 90.6543 24.1302C90.0945 24.1297 89.535 24.1578 88.9781 24.2145C88.4397 24.2684 87.8762 24.2971 87.3019 24.2971C87.1483 24.301 86.9955 24.2729 86.8533 24.2145C86.7336 24.1583 86.6738 24.0309 86.6738 23.8323C86.6778 23.7627 86.702 23.6957 86.7435 23.6396C86.7849 23.5835 86.8418 23.5407 86.9071 23.5164C87.0873 23.4301 87.2762 23.3634 87.4706 23.3172C87.6899 23.2622 87.9062 23.1957 88.1185 23.118C88.3038 23.0568 88.4696 22.9479 88.5994 22.8022C88.8018 22.5001 88.9252 22.1521 88.9584 21.79C89.0083 21.4212 89.0358 21.0496 89.0409 20.6774V13.8418C89.0481 13.3848 89.0036 12.9284 88.9081 12.4814C88.8907 12.3688 88.851 12.2607 88.7912 12.1636C88.7314 12.0665 88.6528 11.9824 88.56 11.9161C88.3754 11.7857 88.1745 11.6801 87.9624 11.6021C87.7506 11.5231 87.5622 11.4567 87.3971 11.4011C87.232 11.3455 87.1476 11.2521 87.1476 11.1193V11.0529C87.2369 10.8956 87.3593 10.7597 87.5065 10.6545C87.5945 10.5881 87.8331 10.4338 88.2244 10.1897C88.6156 9.94567 89.0337 9.69802 89.4806 9.44318C89.9274 9.18835 90.342 8.95685 90.7081 8.74688C90.9021 8.61897 91.1098 8.51304 91.3272 8.43103Z" fill="white"/>
<path d="M124.893 14.075C124.906 14.304 124.86 14.5324 124.76 14.739C124.645 14.7611 124.529 14.7772 124.412 14.7875C124.293 14.7998 124.173 14.8058 124.053 14.8054H115.796C115.683 14.8099 115.571 14.8323 115.464 14.8718C115.398 14.8718 115.353 14.9598 115.332 15.1374C115.308 15.3159 115.297 15.4958 115.298 15.6758V15.9414C115.316 16.813 115.422 17.6806 115.613 18.531C115.781 19.2996 116.091 20.03 116.527 20.6845C116.949 21.3072 117.519 21.8149 118.187 22.1615C118.872 22.5276 119.724 22.7106 120.742 22.7106C121.116 22.7147 121.488 22.6811 121.855 22.6101C122.165 22.5476 122.466 22.4475 122.752 22.3122C123.043 22.1707 123.32 22.0037 123.581 21.8133C123.858 21.6147 124.162 21.3934 124.495 21.1493C124.579 21.1172 124.671 21.1061 124.76 21.117C124.915 21.117 124.992 21.1834 124.992 21.3162C124.974 21.4739 124.912 21.6232 124.812 21.7469C124.685 21.9345 124.545 22.1143 124.396 22.2853C124.245 22.4603 124.084 22.6268 123.915 22.7842C123.794 22.9014 123.666 23.0122 123.533 23.1162C122.94 23.6351 122.267 24.055 121.541 24.3599C120.809 24.6306 120.032 24.7602 119.251 24.7421C118.304 24.7645 117.364 24.5808 116.495 24.2038C115.715 23.8512 115.023 23.3295 114.47 22.6765C113.909 22.0067 113.482 21.2346 113.214 20.4028C112.919 19.502 112.762 18.5617 112.749 17.614C112.728 16.5544 112.828 15.496 113.047 14.4591C113.249 13.4472 113.62 12.4765 114.144 11.5877C114.643 10.7452 115.331 10.0292 116.152 9.49521C116.982 8.95324 117.983 8.68225 119.156 8.68225C120.484 8.68225 121.62 8.9646 122.566 9.5293C123.511 10.094 124.18 11.0404 124.574 12.3684C124.661 12.6521 124.733 12.9402 124.789 13.2316C124.839 13.5107 124.874 13.7922 124.893 14.075ZM122.137 12.4473C122.136 12.0686 122.051 11.6948 121.889 11.3526C121.729 11.0076 121.509 10.693 121.241 10.423C120.977 10.1591 120.668 9.94509 120.328 9.79131C120 9.64029 119.643 9.56135 119.282 9.55981C118.806 9.56261 118.339 9.68217 117.921 9.90796C117.478 10.1409 117.079 10.4501 116.742 10.8214C116.4 11.1974 116.125 11.6297 115.929 12.0992C115.736 12.5446 115.634 13.0242 115.63 13.5097C115.63 13.5995 115.701 13.6587 115.847 13.6892C116.01 13.7258 116.176 13.748 116.344 13.7556C116.523 13.766 116.703 13.766 116.882 13.7556C117.062 13.7448 117.169 13.7394 117.214 13.7394C117.834 13.7394 118.349 13.7448 118.759 13.7556C119.17 13.7664 119.673 13.7496 120.269 13.7053C120.534 13.6838 120.778 13.6623 120.999 13.6389C121.198 13.6223 121.394 13.5776 121.58 13.5061C121.749 13.4382 121.889 13.3156 121.979 13.158C122.094 12.9394 122.148 12.694 122.137 12.4473Z" fill="white"/>
<path d="M146.772 14.075C146.784 14.304 146.738 14.5324 146.639 14.739C146.409 14.7813 146.176 14.8035 145.943 14.8054H137.675C137.561 14.8099 137.449 14.8323 137.343 14.8718C137.276 14.8718 137.232 14.9598 137.21 15.1374C137.188 15.3161 137.178 15.4959 137.178 15.6758V15.9414C137.195 16.8131 137.301 17.6807 137.494 18.531C137.66 19.2995 137.97 20.0299 138.405 20.6845C138.828 21.3068 139.398 21.8144 140.065 22.1615C140.751 22.5276 141.603 22.7106 142.623 22.7106C142.996 22.7147 143.369 22.6811 143.735 22.6102C144.045 22.5477 144.347 22.4477 144.633 22.3122C144.923 22.1703 145.201 22.0034 145.463 21.8133C145.74 21.6147 146.044 21.3934 146.375 21.1493C146.46 21.1176 146.551 21.1065 146.641 21.117C146.795 21.117 146.874 21.1834 146.874 21.3162C146.857 21.474 146.794 21.6235 146.695 21.7469C146.567 21.9345 146.429 22.1143 146.28 22.2853C146.124 22.4648 145.964 22.6299 145.799 22.7842C145.634 22.9386 145.505 23.0498 145.417 23.1162C144.823 23.6344 144.151 24.0542 143.425 24.3599C142.692 24.6304 141.914 24.76 141.133 24.7421C140.187 24.7645 139.247 24.5808 138.378 24.2038C137.598 23.8507 136.906 23.3291 136.352 22.6765C135.791 22.0063 135.365 21.2343 135.096 20.4028C134.802 19.5018 134.645 18.5617 134.631 17.614C134.611 16.5544 134.711 15.4959 134.931 14.4591C135.132 13.4473 135.502 12.4766 136.026 11.5877C136.526 10.7451 137.214 10.0291 138.036 9.49521C138.865 8.95324 139.866 8.68225 141.04 8.68225C142.368 8.68225 143.504 8.9646 144.449 9.5293C145.395 10.094 146.064 11.0404 146.458 12.3684C146.545 12.6521 146.618 12.9402 146.675 13.2316C146.722 13.5108 146.755 13.7923 146.772 14.075ZM144.017 12.4473C144.017 12.0684 143.931 11.6943 143.768 11.3526C143.608 11.0072 143.388 10.6925 143.12 10.423C142.856 10.1591 142.548 9.94511 142.208 9.79131C141.88 9.6405 141.523 9.56157 141.162 9.55981C140.686 9.56283 140.218 9.68236 139.8 9.90796C139.357 10.1409 138.958 10.4501 138.622 10.8214C138.279 11.1969 138.003 11.6293 137.808 12.0992C137.615 12.5447 137.514 13.0244 137.51 13.5097C137.51 13.5995 137.582 13.6587 137.725 13.6892C137.889 13.7257 138.056 13.7479 138.224 13.7556C138.406 13.7664 138.589 13.7664 138.771 13.7556C138.951 13.7448 139.059 13.7394 139.103 13.7394C139.722 13.7394 140.236 13.7448 140.647 13.7556C141.057 13.7664 141.561 13.7496 142.158 13.7053C142.423 13.6838 142.666 13.6623 142.888 13.6389C143.087 13.6221 143.283 13.5774 143.47 13.5061C143.637 13.4395 143.777 13.3197 143.87 13.1652C143.981 12.9431 144.032 12.6954 144.017 12.4473Z" fill="white"/>
<path d="M56.0365 33.2646C55.858 33.807 55.7518 34.3705 55.7207 34.9407C55.6656 35.6382 55.5992 36.319 55.5215 36.983C55.4597 37.5668 55.3486 38.1443 55.1895 38.7094C55.0459 39.1957 54.809 39.4398 54.4716 39.4398C54.2078 39.4398 54.0517 39.3339 54.0086 39.1239C53.9624 38.8608 53.9564 38.5921 53.9907 38.3271C54.0248 38.0059 54.0517 37.6577 54.075 37.2809C54.0987 36.9188 54.0417 36.5559 53.9081 36.2185C53.777 35.9322 53.5469 35.7028 53.2603 35.5724C52.8991 35.3951 52.513 35.2741 52.1153 35.2135C51.6484 35.1332 51.1776 35.0781 50.7048 35.0484C50.2059 35.0149 49.7357 34.9981 49.2942 34.9981C48.9622 34.9981 48.6625 34.9981 48.3969 35.0143C48.1313 35.0304 47.9106 35.0304 47.7329 35.0304C47.5552 35.0304 47.435 35.0304 47.3022 35.0143C47.2376 35.0087 47.1726 35.0177 47.112 35.0407C47.0515 35.0637 46.9968 35.1001 46.9523 35.1471C46.8268 35.3017 46.7467 35.4881 46.7207 35.6855C46.6556 36.0635 46.6279 36.447 46.6382 36.8304L46.5718 40.8808C46.5275 42.8298 46.5329 44.7775 46.5879 46.7241C46.643 48.6706 46.6484 50.6183 46.6041 52.5673C46.6041 52.9262 46.6095 53.2803 46.6202 53.6297C46.6315 53.9863 46.6705 54.3415 46.7369 54.6921C46.8482 55.313 47.1251 55.7282 47.5678 55.9375C48.0072 56.1469 48.4785 56.2816 48.9622 56.3359L50.2723 56.4849C50.6599 56.5298 50.8537 56.6841 50.8537 56.9497C50.8537 57.3086 50.7765 57.497 50.6222 57.515C50.4018 57.54 50.18 57.5508 49.9582 57.5473C49.0717 57.5473 48.1917 57.5198 47.3183 57.4647C46.445 57.4097 45.565 57.3822 44.6785 57.3822C43.8817 57.3822 43.0903 57.4097 42.3042 57.4647C41.5182 57.5198 40.7274 57.5473 39.9318 57.5473C39.7483 57.5469 39.5649 57.5362 39.3826 57.515C39.1942 57.4917 39.1009 57.3589 39.1009 57.1166C39.0876 57.0098 39.1097 56.9015 39.1638 56.8085C39.2179 56.7155 39.3011 56.6428 39.4006 56.6015C39.6014 56.5237 39.8151 56.4842 40.0305 56.4849C40.1754 56.4895 40.3204 56.4786 40.463 56.4526C40.9899 56.4113 41.509 56.2996 42.0063 56.1206C42.3555 55.9935 42.6608 55.7686 42.8857 55.4727C43.0991 55.1602 43.2356 54.8018 43.2841 54.4265C43.3566 53.9099 43.3896 53.3886 43.3828 52.867V36.7838C43.3828 36.6725 43.3774 36.4679 43.3666 36.17C43.3639 35.964 43.3477 35.7584 43.3182 35.5545C43.2739 35.3559 43.0191 35.2177 42.5537 35.1399C42.06 35.0601 41.5606 35.0211 41.0606 35.0233H39.0058C38.5049 35.0219 38.0066 35.0945 37.527 35.2386C37.008 35.41 36.5361 35.7 36.1488 36.0857C35.9749 36.2982 35.83 36.533 35.718 36.7838C35.5386 37.1427 35.3591 37.5016 35.1545 37.8964C34.95 38.2912 34.7597 38.6322 34.5731 38.9409C34.3865 39.2495 34.2465 39.4057 34.1585 39.4057C33.982 39.4193 33.8061 39.3724 33.6596 39.2729C33.5967 39.2076 33.5492 39.1291 33.5207 39.0431C33.4921 38.957 33.4832 38.8657 33.4945 38.7758C33.517 38.2627 33.6063 37.7547 33.7601 37.2647C33.9771 36.3874 34.1212 35.4936 34.1908 34.5926C34.2124 34.3485 34.2357 34.0883 34.2572 33.8119C34.2745 33.5577 34.3246 33.3068 34.4062 33.0654C34.4793 32.8589 34.6027 32.6739 34.7651 32.527C34.9499 32.3712 35.188 32.2933 35.4291 32.3098C35.4863 32.3118 35.5421 32.3281 35.5913 32.3572C35.6406 32.3864 35.6817 32.4275 35.7109 32.4767C35.788 32.588 35.8903 32.7136 35.9926 32.859C36.1208 33.0186 36.272 33.1583 36.4413 33.2735C36.6753 33.4208 36.9454 33.5009 37.2219 33.505C38.5499 33.572 39.9108 33.6223 41.3046 33.6558C42.6984 33.6893 44.0599 33.7054 45.3892 33.7042C46.4516 33.7042 47.4751 33.6935 48.4597 33.6719C49.4444 33.6504 50.4679 33.639 51.5303 33.6378C51.8617 33.6378 52.1991 33.6324 52.5424 33.6217C52.8816 33.6116 53.22 33.584 53.5564 33.5391C53.8016 33.504 54.0318 33.4001 54.2204 33.2394C54.3906 33.0849 54.5439 32.9129 54.678 32.7262C54.8108 32.5467 54.9203 32.3888 55.0082 32.2452C55.0347 32.1859 55.0763 32.1346 55.1289 32.0964C55.1815 32.0583 55.2433 32.0347 55.3079 32.0281C55.6848 32.0281 55.9217 32.1734 56.0258 32.4606C56.124 32.7189 56.1279 33.0037 56.0365 33.2646Z" fill="white"/>
<path d="M72.0729 44.6855C72.0733 44.9309 72.0283 45.1743 71.9401 45.4033C71.8601 45.6243 71.7149 45.8158 71.5238 45.9525C71.3115 46.0912 71.0586 46.1545 70.806 46.1319C70.4414 46.0897 70.0961 45.9454 69.81 45.7156C69.7197 45.6612 69.6414 45.5891 69.5798 45.5037C69.5181 45.4182 69.4743 45.3212 69.451 45.2185C69.3954 44.9977 69.3344 44.7752 69.2716 44.5545C69.2115 44.3489 69.1221 44.153 69.006 43.973C68.9359 43.8839 68.8442 43.8142 68.7396 43.7705C68.635 43.7269 68.521 43.7107 68.4084 43.7236C67.9538 43.7213 67.5031 43.806 67.0804 43.973C66.6769 44.1301 66.297 44.342 65.9516 44.6029C65.6326 44.8436 65.3622 45.1426 65.1548 45.4841C64.9644 45.7819 64.8607 46.1267 64.8551 46.4801V54.5468C64.859 54.6923 64.8764 54.8371 64.9071 54.9793C64.9341 55.3076 65.0592 55.6202 65.266 55.8766C65.4491 56.0955 65.6824 56.2667 65.9462 56.3755C66.2262 56.4902 66.5234 56.5575 66.8255 56.5747C67.1468 56.5963 67.4626 56.607 67.7713 56.607C67.9723 56.607 68.071 56.8062 68.071 57.2046C68.0801 57.2656 68.067 57.3277 68.034 57.3798C68.0011 57.4319 67.9505 57.4703 67.8915 57.4882C67.7781 57.5194 67.661 57.5357 67.5434 57.5366C66.9934 57.5371 66.4441 57.4988 65.8995 57.4218C65.3557 57.3433 64.8069 57.3043 64.2575 57.3051C63.6359 57.3046 63.0149 57.3435 62.3982 57.4218C61.7809 57.4985 61.1594 57.5368 60.5372 57.5366C60.3726 57.5305 60.2101 57.4971 60.0563 57.4379C59.9708 57.4138 59.8962 57.3611 59.8449 57.2886C59.7936 57.2161 59.7687 57.1282 59.7745 57.0395C59.7676 56.9413 59.7979 56.8441 59.8594 56.7673C59.921 56.6904 60.0092 56.6396 60.1065 56.625C60.3273 56.5693 60.5713 56.5137 60.8369 56.4581C61.1089 56.4005 61.3716 56.3056 61.6176 56.1763C61.7525 56.096 61.8665 55.9849 61.9501 55.852C62.0337 55.719 62.0846 55.5682 62.0986 55.4118C62.186 54.9737 62.2418 54.5299 62.2654 54.0838C62.287 53.6423 62.2977 53.1997 62.2977 52.7558C62.2977 51.8932 62.2924 51.0964 62.2816 50.3654C62.269 49.635 62.2654 48.8382 62.2654 47.975C62.2654 47.6879 62.2654 47.39 62.2475 47.0777C62.2399 46.7815 62.1792 46.4891 62.068 46.2145C61.9991 45.979 61.8594 45.7703 61.6678 45.6169C61.5004 45.4935 61.3234 45.3837 61.1384 45.2885C60.9715 45.2005 60.8172 45.109 60.6736 45.0229C60.6032 44.9812 60.5438 44.9233 60.5004 44.854C60.457 44.7847 60.4309 44.706 60.4242 44.6245C60.4698 44.5122 60.552 44.4186 60.6575 44.3589C60.767 44.2925 60.8675 44.2368 60.9554 44.192C61.1761 44.0825 61.3915 43.9712 61.6032 43.86C61.815 43.7487 62.0286 43.6285 62.2511 43.5011C62.4361 43.3946 62.6131 43.2746 62.7805 43.1421L63.3799 42.6773C63.5714 42.5283 63.7709 42.3899 63.9775 42.2628C64.1403 42.1548 64.3235 42.0815 64.5159 42.0474C64.5427 42.0366 64.5717 42.0325 64.6004 42.0353C64.6291 42.0381 64.6568 42.0478 64.681 42.0636C64.7228 42.0949 64.7672 42.1225 64.8138 42.1461C64.8679 42.2727 64.9013 42.4073 64.9125 42.5445C64.9367 42.7428 64.9481 42.9424 64.9466 43.1421V44.1722C64.9681 44.0843 65.126 43.9282 65.4114 43.7074C65.759 43.4478 66.1255 43.2145 66.5079 43.0093C66.9767 42.7546 67.4652 42.5379 67.9687 42.3615C68.48 42.1777 69.0189 42.0824 69.5623 42.0797C69.9802 42.0647 70.3956 42.1503 70.7737 42.3292C71.0755 42.4808 71.3411 42.6956 71.5525 42.9591C71.7495 43.2089 71.8914 43.4976 71.9689 43.8061C72.0384 44.0941 72.0733 44.3893 72.0729 44.6855Z" fill="white"/>
<path d="M93.12 54.9435C93.104 55.0445 93.0824 55.1446 93.0553 55.2432C92.8926 55.9286 92.4928 56.5344 91.9265 56.9535C91.363 57.3801 90.6736 57.6073 89.9668 57.5995C89.237 57.5995 88.6616 57.3674 88.2404 56.9032C87.809 56.4192 87.5012 55.838 87.3431 55.2091C87.0768 55.5645 86.7702 55.8878 86.4297 56.1728C86.0526 56.491 85.6471 56.7739 85.2183 57.0181C84.7833 57.2693 84.3208 57.4699 83.8401 57.6157C83.394 57.756 82.9295 57.8292 82.4618 57.8328C81.3336 57.8328 80.5422 57.5062 80.0876 56.853C79.6329 56.1997 79.4062 55.3754 79.4074 54.38C79.4042 53.9047 79.5368 53.4383 79.7897 53.0359C80.0503 52.6171 80.3748 52.2416 80.7516 51.9232C81.1381 51.5912 81.5593 51.3018 82.0078 51.06C82.4217 50.8348 82.849 50.6352 83.2873 50.4624C84.0602 50.1753 84.7625 49.9264 85.3942 49.7159C86.0259 49.5053 86.7396 49.3001 87.5352 49.1003V46.5448C87.5352 45.6152 87.3641 44.868 87.0219 44.3033C86.6797 43.7386 86.0103 43.4563 85.0137 43.4563C84.4612 43.4306 83.9116 43.5507 83.4201 43.8044C82.7309 44.19 82.2167 44.8263 81.9845 45.5811C81.8965 45.8916 81.8301 46.1195 81.7853 46.2792C81.6629 46.6493 81.4171 46.9661 81.089 47.1765C80.7477 47.4133 80.3414 47.5387 79.926 47.5354C79.8273 47.5489 79.7272 47.5236 79.6468 47.4646C79.5664 47.4057 79.5121 47.3178 79.4953 47.2196C79.4529 47.0286 79.4307 46.8337 79.4289 46.6381C79.4289 46.1069 79.6503 45.5596 80.0929 44.9961C80.5641 44.4018 81.1107 43.8716 81.7189 43.4186C82.3671 42.9355 83.0753 42.5386 83.8257 42.2378C84.4744 41.9502 85.173 41.7924 85.8823 41.7729C86.077 41.776 86.2713 41.7922 86.4638 41.8214C86.6971 41.8555 86.934 41.895 87.1816 41.938C87.4172 41.981 87.6502 42.0367 87.8797 42.105C88.0644 42.1562 88.2445 42.2229 88.4181 42.3041C89.1479 42.681 89.6013 43.1733 89.7784 43.7811C89.9581 44.4436 90.0433 45.1281 90.0314 45.8144C90.0314 46.6519 90.0207 47.5426 89.9991 48.4866C89.9776 49.4305 89.9662 50.3212 89.965 51.1587C89.965 51.3579 89.965 51.6522 89.9489 52.0381C89.9327 52.4239 89.9363 52.8241 89.9489 53.2333C89.9615 53.6424 89.9812 54.0301 90.0153 54.3962C90.0179 54.6554 90.0793 54.9106 90.1947 55.1427C90.2805 55.2966 90.4238 55.4101 90.5932 55.4586C90.7672 55.514 90.9489 55.5418 91.1315 55.5411C91.3371 55.5492 91.5417 55.5093 91.7291 55.4245C91.8734 55.3544 92.0074 55.265 92.1275 55.1589C92.237 55.0602 92.3375 54.9669 92.4254 54.8771C92.5063 54.7929 92.6108 54.7353 92.7251 54.712C92.9889 54.6456 93.12 54.7228 93.12 54.9435ZM87.519 50.6724C87.5114 50.5333 87.4952 50.3949 87.4705 50.2578C87.2713 50.3027 87.0381 50.3619 86.7725 50.4373C86.5069 50.5127 86.2341 50.6042 85.9595 50.7029C85.6849 50.8016 85.4211 50.9021 85.1627 51.0026C84.9043 51.1031 84.6817 51.182 84.4825 51.252C83.8826 51.4741 83.3262 51.7997 82.8387 52.2139C82.5955 52.4151 82.4016 52.6694 82.2719 52.9571C82.1422 53.2449 82.0801 53.5585 82.0903 53.8739C82.0681 54.4161 82.2196 54.9512 82.5228 55.4011C82.81 55.7995 83.3083 55.9987 84.0177 55.9987C84.5083 55.992 84.9909 55.8729 85.4283 55.6506C85.8696 55.4424 86.2692 55.1553 86.6073 54.8035C86.8272 54.568 87.0166 54.3058 87.1709 54.0229C87.3427 53.7567 87.4558 53.4569 87.5028 53.1435C87.4998 53.0386 87.5052 52.9336 87.519 52.8295C87.5275 52.7911 87.5329 52.7521 87.5352 52.7128V51.252C87.5399 51.0367 87.5346 50.8435 87.519 50.6724Z" fill="white"/>
<path d="M105.239 42.925C105.239 44.917 105.234 46.8815 105.223 48.8185C105.212 50.7555 105.206 52.72 105.205 54.712C105.205 55.4202 105.189 56.1506 105.156 56.9032C105.124 57.6557 105.064 58.3861 104.977 59.0944C104.827 60.422 104.309 61.6813 103.482 62.7302C102.659 63.7612 101.696 64.6716 100.62 65.4347C100.455 65.5603 100.283 65.6771 100.106 65.7846C99.935 65.9066 99.7343 65.9809 99.5249 66H99.4585C99.4136 65.9103 99.3759 65.8205 99.3418 65.7505C99.3067 65.6697 99.2561 65.5966 99.1929 65.5352C99.2367 65.4451 99.2922 65.3613 99.358 65.2857C99.4244 65.2086 99.4908 65.1242 99.5572 65.0363C99.934 64.5924 100.305 64.1665 100.67 63.7585C101.05 63.3279 101.379 62.8545 101.65 62.348C101.951 61.7712 102.174 61.1568 102.314 60.5211C102.447 59.8923 102.536 59.2548 102.579 58.6134C102.622 57.9602 102.64 57.3069 102.63 56.6537C102.619 56.0005 102.612 55.3544 102.612 54.712C102.612 53.5156 102.618 52.315 102.63 51.1102C102.641 49.9054 102.647 48.7042 102.646 47.5066C102.646 47.2644 102.646 46.9485 102.63 46.5609C102.637 46.258 102.576 45.9573 102.45 45.6815C102.337 45.4365 102.144 45.2371 101.903 45.1162C101.684 45.0115 101.456 44.928 101.221 44.8668C101 44.8129 100.806 44.7573 100.641 44.7017C100.565 44.6821 100.499 44.6365 100.453 44.5729C100.408 44.5092 100.386 44.4316 100.392 44.3535C100.394 44.2858 100.41 44.2192 100.438 44.1576C100.467 44.096 100.507 44.0406 100.557 43.9946C100.69 43.9067 100.973 43.7523 101.404 43.5298C101.835 43.3073 102.301 43.0776 102.782 42.8335C103.263 42.5894 103.717 42.3741 104.126 42.1856C104.371 42.0527 104.634 41.9577 104.907 41.9039C104.963 41.9009 105.02 41.9114 105.072 41.9345C105.124 41.9576 105.169 41.9926 105.205 42.0367C105.205 42.191 105.205 42.34 105.223 42.4853C105.241 42.6307 105.239 42.7761 105.239 42.925ZM105.537 34.1315C105.542 34.3705 105.499 34.608 105.411 34.8302C105.323 35.0524 105.191 35.2548 105.024 35.4254C104.86 35.5997 104.661 35.7377 104.441 35.8304C104.22 35.9231 103.983 35.9686 103.744 35.9638C103.282 35.9494 102.843 35.7595 102.516 35.4327C102.19 35.106 102 34.6669 101.985 34.2051C101.974 33.7246 102.153 33.259 102.482 32.9094C102.641 32.7355 102.836 32.5976 103.052 32.5047C103.269 32.4119 103.503 32.3663 103.739 32.371C103.974 32.3648 104.209 32.4057 104.429 32.4914C104.648 32.577 104.849 32.7057 105.018 32.8699C105.188 33.0318 105.321 33.2274 105.411 33.444C105.5 33.6607 105.543 33.8936 105.537 34.1279V34.1315Z" fill="white"/>
<path d="M128.644 54.9435C128.628 55.0447 128.606 55.1447 128.578 55.2432C128.416 55.9289 128.016 56.5348 127.449 56.9535C126.886 57.38 126.198 57.6073 125.491 57.5995C124.76 57.5995 124.185 57.3674 123.765 56.9032C123.334 56.4191 123.026 55.8379 122.868 55.2091C122.602 55.5649 122.295 55.8883 121.954 56.1728C121.578 56.4918 121.172 56.7748 120.743 57.0181C120.308 57.2693 119.846 57.4699 119.366 57.6157C118.92 57.7559 118.456 57.8291 117.988 57.8328C116.86 57.8328 116.068 57.5062 115.614 56.853C115.159 56.1997 114.932 55.3754 114.934 54.38C114.931 53.905 115.063 53.4389 115.314 53.0359C115.576 52.6174 115.901 52.2421 116.278 51.9232C116.664 51.5912 117.086 51.3018 117.534 51.06C117.947 50.8348 118.374 50.6352 118.812 50.4624C119.587 50.1753 120.29 49.9264 120.92 49.7159C121.551 49.5053 122.265 49.3001 123.061 49.1003V46.5448C123.061 45.6152 122.89 44.868 122.546 44.3033C122.203 43.7386 121.534 43.4563 120.54 43.4563C119.987 43.4309 119.438 43.5509 118.946 43.8044C118.577 44.0126 118.255 44.2956 118.001 44.6353C117.787 44.9204 117.624 45.2404 117.52 45.5811C117.43 45.8916 117.364 46.1195 117.32 46.2792C117.197 46.6494 116.951 46.9662 116.622 47.1765C116.282 47.4135 115.876 47.5389 115.461 47.5354C115.362 47.549 115.262 47.5236 115.181 47.4647C115.101 47.4058 115.046 47.318 115.029 47.2196C114.986 47.0286 114.964 46.8337 114.962 46.6381C114.962 46.1069 115.184 45.5596 115.626 44.9961C116.099 44.4022 116.646 43.872 117.254 43.4186C117.898 42.9363 118.602 42.5394 119.348 42.2378C119.998 41.9502 120.697 41.7923 121.407 41.7729C121.601 41.7761 121.796 41.7923 121.988 41.8214C122.222 41.8555 122.458 41.895 122.706 41.938C122.941 41.981 123.173 42.0367 123.402 42.105C123.587 42.1562 123.767 42.2229 123.941 42.3041C124.672 42.681 125.126 43.1733 125.303 43.7811C125.485 44.4433 125.573 45.1277 125.565 45.8144C125.565 46.6519 125.553 47.5426 125.531 48.4866C125.508 49.4305 125.497 50.3212 125.498 51.1587C125.498 51.3579 125.498 51.6522 125.482 52.0381C125.466 52.4239 125.47 52.8241 125.482 53.2333C125.495 53.6424 125.515 54.0301 125.549 54.3962C125.552 54.6553 125.614 54.9103 125.728 55.1427C125.814 55.2966 125.957 55.4101 126.127 55.4586C126.301 55.5138 126.482 55.5417 126.665 55.5411C126.871 55.5497 127.075 55.5097 127.263 55.4245C127.407 55.3544 127.541 55.265 127.661 55.1589C127.772 55.0602 127.871 54.9669 127.961 54.8771C128.041 54.793 128.145 54.7354 128.259 54.712C128.516 54.651 128.644 54.7282 128.644 54.9435ZM123.052 50.6724C123.044 50.5333 123.027 50.3948 123.002 50.2578C122.803 50.3027 122.571 50.3619 122.306 50.4373C122.04 50.5127 121.767 50.6042 121.491 50.7029C121.215 50.8016 120.953 50.9021 120.696 51.0026C120.439 51.1031 120.213 51.182 120.014 51.252C119.415 51.4741 118.859 51.7997 118.372 52.2139C118.129 52.4151 117.935 52.6694 117.805 52.9571C117.676 53.2449 117.613 53.5585 117.624 53.8739C117.601 54.4162 117.752 54.9515 118.056 55.4011C118.343 55.7995 118.841 55.9987 119.549 55.9987C120.04 55.9922 120.523 55.8731 120.96 55.6506C121.401 55.4428 121.801 55.1557 122.139 54.8035C122.36 54.5686 122.55 54.3062 122.704 54.0229C122.875 53.7563 122.988 53.4567 123.036 53.1435C123.033 53.0386 123.039 52.9336 123.052 52.8295C123.061 52.7911 123.066 52.7521 123.069 52.7128V51.252C123.067 51.0367 123.062 50.8435 123.052 50.6724Z" fill="white"/>
<path d="M148.166 44.6856C148.166 44.931 148.121 45.1743 148.033 45.4034C147.954 45.6242 147.809 45.8157 147.618 45.9525C147.406 46.0909 147.153 46.1541 146.901 46.132C146.536 46.0891 146.191 45.9449 145.905 45.7157C145.816 45.6605 145.74 45.5881 145.68 45.5027C145.62 45.4172 145.578 45.3206 145.557 45.2185C145.501 44.9978 145.44 44.7753 145.377 44.5545C145.318 44.3486 145.228 44.1527 145.111 43.9731C145.041 43.884 144.95 43.8142 144.845 43.7706C144.74 43.7269 144.626 43.7108 144.514 43.7236C144.059 43.7214 143.609 43.806 143.186 43.9731C142.783 44.1305 142.403 44.3424 142.057 44.603C141.738 44.8437 141.468 45.1427 141.26 45.4841C141.071 45.7824 140.968 46.1271 140.962 46.4802V54.5469C140.961 54.6918 140.973 54.8366 140.998 54.9794C141.022 55.3065 141.143 55.619 141.346 55.8767C141.53 56.0952 141.764 56.2663 142.028 56.3756C142.308 56.4902 142.606 56.5576 142.908 56.5748C143.229 56.5963 143.543 56.6071 143.853 56.6071C144.053 56.6071 144.153 56.8063 144.153 57.2047C144.162 57.2656 144.149 57.3276 144.116 57.3795C144.083 57.4315 144.032 57.4701 143.974 57.4882C143.86 57.5193 143.743 57.5356 143.626 57.5367C143.076 57.5373 142.526 57.4989 141.982 57.4218C141.437 57.3433 140.888 57.3043 140.338 57.3052C139.716 57.3047 139.095 57.3437 138.479 57.4218C137.862 57.4985 137.241 57.5369 136.619 57.5367C136.455 57.5308 136.292 57.4975 136.138 57.438C136.052 57.4073 135.977 57.3492 135.926 57.2724C135.876 57.1957 135.851 57.1044 135.857 57.0125C135.863 56.9207 135.898 56.8332 135.958 56.7632C136.018 56.6933 136.099 56.6448 136.189 56.625C136.409 56.5694 136.653 56.5138 136.919 56.4581C137.19 56.4005 137.453 56.3057 137.698 56.1764C137.833 56.0965 137.948 55.9855 138.032 55.8525C138.116 55.7196 138.167 55.5685 138.181 55.4119C138.268 54.9739 138.324 54.53 138.346 54.0839C138.367 53.6424 138.38 53.1991 138.38 52.7559C138.38 51.8933 138.374 51.0965 138.362 50.3655C138.35 49.6345 138.342 48.8395 138.339 47.9804C138.339 47.6933 138.339 47.3954 138.322 47.0831C138.315 46.787 138.254 46.4946 138.143 46.2199C138.075 45.9842 137.936 45.7754 137.745 45.6223C137.582 45.4978 137.41 45.3862 137.23 45.2885C137.064 45.2006 136.908 45.1091 136.765 45.0229C136.695 44.981 136.636 44.923 136.593 44.8537C136.55 44.7844 136.524 44.7058 136.517 44.6245C136.561 44.512 136.643 44.4182 136.749 44.3589C136.86 44.2925 136.959 44.2369 137.048 44.192C137.269 44.0826 137.484 43.9713 137.694 43.86C137.904 43.7488 138.121 43.6285 138.342 43.5011C138.53 43.3946 138.71 43.2746 138.881 43.1422L139.478 42.6774C139.666 42.5201 139.861 42.3734 140.065 42.2377C140.228 42.1301 140.411 42.0568 140.603 42.0224C140.63 42.0113 140.66 42.0069 140.689 42.0097C140.718 42.0126 140.746 42.0224 140.77 42.0385C140.812 42.0703 140.856 42.0979 140.903 42.1211C140.956 42.248 140.99 42.3824 141.002 42.5195C141.025 42.7178 141.037 42.9174 141.036 43.1171V44.1472C141.057 44.0592 141.215 43.9031 141.501 43.6824C141.848 43.4227 142.214 43.1894 142.595 42.9843C143.064 42.7298 143.553 42.5132 144.056 42.3364C144.568 42.1527 145.106 42.0574 145.65 42.0547C146.068 42.0397 146.483 42.1252 146.861 42.3041C147.164 42.4557 147.43 42.6705 147.642 42.934C147.838 43.1839 147.98 43.4726 148.056 43.7811C148.13 44.0769 148.167 44.3807 148.166 44.6856Z" fill="white"/>
</svg>
